<?xml version="1.0" standalone="no"?>
<!DOCTYPE svg PUBLIC "-//W3C//DTD SVG 20010904//EN"
 "http://www.w3.org/TR/2001/REC-SVG-20010904/DTD/svg10.dtd">
<svg version="1.0" xmlns="http://www.w3.org/2000/svg"
 width="300.000000pt" height="78.000000pt" viewBox="0 0 300.000000 78.000000"
 preserveAspectRatio="xMidYMid meet">

<g transform="translate(0.000000,78.000000) scale(0.100000,-0.100000)"
fill="#000000" stroke="none">
<path d="M284 681 c-48 -22 -71 -47 -29 -31 65 25 146 3 199 -54 l31 -34 0 46
c0 46 -1 48 -45 70 -54 27 -101 28 -156 3z"/>
<path d="M160 667 c-43 -22 -84 -101 -88 -173 -6 -87 16 -141 78 -197 51 -46
103 -67 166 -67 86 0 161 40 151 81 -4 15 -2 17 13 9 11 -6 21 -14 24 -19 4
-5 14 -8 24 -6 9 1 27 -2 40 -6 25 -10 24 -6 -11 43 -15 20 -20 41 -18 78 1
27 -2 50 -7 50 -16 0 -60 -55 -64 -80 -1 -14 -15 -35 -29 -47 -85 -73 -215
-52 -279 45 -28 42 -31 53 -28 112 2 44 8 71 20 84 17 19 15 42 -3 31 -5 -3
-6 1 -3 10 4 9 13 14 21 11 8 -3 11 -1 8 4 -3 6 2 10 12 11 13 1 11 3 -7 9
-16 5 -19 8 -8 9 9 1 20 6 23 11 8 13 -5 12 -35 -3z"/>
<path d="M957 660 c-16 -5 -45 -21 -64 -36 -20 -15 -33 -22 -29 -16 11 17 16
52 8 52 -15 -1 -62 -80 -73 -125 -10 -38 -9 -61 0 -111 13 -62 8 -117 -11
-141 -15 -19 8 -16 43 4 24 14 33 15 47 5 59 -43 152 -66 167 -42 3 6 1 10 -4
10 -6 0 -11 5 -11 11 0 5 4 8 9 5 5 -3 12 1 15 10 3 8 2 12 -3 9 -17 -10 -116
41 -144 74 -37 45 -51 100 -36 153 14 55 72 113 127 127 23 7 42 14 42 16 0 8
-52 4 -83 -5z"/>
<path d="M530 605 c-7 -9 -13 -32 -14 -51 -1 -31 4 -39 33 -55 34 -18 60 -17
31 1 -12 8 -11 10 5 10 17 0 17 2 5 10 -8 5 -11 10 -6 10 5 0 -3 11 -19 25
-18 17 -25 33 -22 45 6 24 3 25 -13 5z"/>
<path d="M1012 484 c-8 -6 -13 -19 -10 -30 3 -16 13 -19 70 -22 l67 -3 -2 30
c-2 28 -4 30 -56 33 -30 2 -61 -2 -69 -8z"/>
<path d="M334 465 c-14 -34 3 -45 70 -45 66 0 77 7 68 43 -4 14 -16 17 -68 17
-48 0 -66 -4 -70 -15z"/>
<path d="M1825 375 c-50 -49 -22 -135 43 -135 16 0 37 9 47 20 23 25 12 39
-13 17 -38 -35 -72 -14 -72 45 0 49 29 68 67 43 33 -22 45 -9 14 16 -31 26
-57 24 -86 -6z"/>
<path d="M2276 377 c-25 -25 -39 -96 -16 -82 5 3 7 0 4 -8 -12 -33 66 -63 102
-39 22 14 36 54 30 87 -8 39 -22 53 -64 61 -25 5 -36 1 -56 -19z m78 -13 c19
-18 21 -75 4 -92 -15 -15 -51 -15 -66 0 -29 29 -5 108 33 108 7 0 21 -7 29
-16z"/>
<path d="M2690 393 c-27 -10 -40 -36 -40 -78 0 -50 23 -75 67 -75 26 0 63 25
63 43 0 14 -28 7 -34 -8 -8 -22 -53 -19 -66 4 -16 30 -12 59 10 81 24 24 34
25 54 4 21 -21 41 -14 24 8 -14 19 -55 30 -78 21z"/>
<path d="M1379 348 c-2 -24 -3 -58 -1 -75 3 -33 4 -33 58 -33 30 0 54 5 54 10
0 6 -20 10 -45 10 -41 0 -45 2 -45 25 0 22 4 25 34 25 19 0 38 5 41 10 4 6
-10 10 -34 10 -34 0 -41 3 -41 20 0 17 7 20 40 20 22 0 40 5 40 10 0 6 -22 10
-49 10 l-49 0 -3 -42z"/>
<path d="M1520 315 l0 -75 49 0 c28 0 53 5 56 10 4 6 -10 10 -34 10 l-41 0 0
65 c0 51 -3 65 -15 65 -12 0 -15 -15 -15 -75z"/>
<path d="M1660 315 l0 -75 49 0 c28 0 53 5 56 10 4 6 -12 10 -39 10 -42 0 -46
2 -46 25 0 23 4 25 40 25 51 0 53 18 3 22 -27 2 -39 8 -41 21 -3 14 4 17 42
17 25 0 46 5 46 10 0 6 -25 10 -55 10 l-55 0 0 -75z"/>
<path d="M1950 380 c0 -5 11 -10 25 -10 24 0 25 -2 25 -66 0 -48 3 -65 13 -62
7 3 13 28 15 66 3 58 4 62 27 62 14 0 25 5 25 10 0 6 -28 10 -65 10 -37 0 -65
-4 -65 -10z"/>
<path d="M2100 317 c0 -59 3 -74 15 -74 10 0 15 10 15 29 0 27 3 29 33 26 27
-2 33 -8 35 -30 2 -16 8 -28 14 -28 7 0 9 15 5 38 -2 21 0 46 5 55 5 11 5 24
-2 37 -9 16 -21 20 -65 20 l-55 0 0 -73z m97 37 c7 -19 -13 -34 -44 -34 -18 0
-23 6 -23 25 0 21 5 25 30 25 19 0 33 -6 37 -16z"/>
<path d="M2431 315 c1 -41 5 -75 10 -75 5 0 9 25 9 55 0 30 3 55 8 55 4 0 20
-25 37 -55 41 -77 55 -72 55 20 0 43 -4 75 -10 75 -5 0 -10 -22 -10 -50 0 -27
-3 -50 -7 -50 -5 0 -20 23 -35 50 -42 75 -58 67 -57 -25z"/>
<path d="M2590 320 c0 -38 4 -70 8 -70 5 0 9 32 10 70 1 42 -2 70 -8 70 -6 0
-10 -30 -10 -70z"/>
<path d="M2821 320 c-23 -71 -21 -101 3 -67 17 22 76 24 76 2 0 -8 7 -15 15
-15 20 0 19 6 -9 81 -34 92 -55 92 -85 -1z m62 -22 c-6 -11 -43 -10 -43 1 0 5
5 22 11 38 l11 28 13 -30 c7 -16 11 -33 8 -37z"/>
<path d="M1190 350 c-14 -4 -24 -12 -23 -17 3 -15 -73 -84 -125 -113 -23 -13
-42 -30 -42 -37 0 -8 -5 -11 -12 -8 -7 4 -3 -3 10 -14 25 -22 47 -18 109 20
40 25 133 126 133 145 0 8 1 17 3 21 3 9 -24 11 -53 3z m-155 -181 c-4 -5 -12
-9 -18 -8 -9 0 -8 2 1 6 6 2 9 10 6 15 -4 7 -2 8 5 4 6 -4 9 -12 6 -17z"/>
</g>
</svg>
